<?xml version="1.0" encoding="UTF-8" standalone="no"?>
<!-- Created with Keyshape -->
<svg xmlns="http://www.w3.org/2000/svg" xmlns:xlink="http://www.w3.org/1999/xlink" viewBox="0 0 392.3 433.6">
    <defs>
        <linearGradient id="Gradient-0" x1="-17.95" y1="1.36" x2="5.05" y2="-0.39" gradientUnits="userSpaceOnUse">
            <stop offset="0" stop-color="#dfe2e7"/>
            <stop offset="0.38" stop-color="#dde0e5"/>
            <stop offset="0.57" stop-color="#d5d9e0"/>
            <stop offset="0.73" stop-color="#c8cdd6"/>
            <stop offset="0.86" stop-color="#b5bcc8"/>
            <stop offset="0.97" stop-color="#9ca7b6"/>
            <stop offset="1" stop-color="#95a0b0"/>
        </linearGradient>
        <linearGradient id="Gradient-1" x1="68.24" y1="124.74" x2="106.66" y2="-17.89" gradientUnits="userSpaceOnUse">
            <stop offset="0.29" stop-color="#001b41"/>
            <stop offset="0.82" stop-color="#4a00e0"/>
        </linearGradient>
        <linearGradient id="Gradient-2" x1="457.9" y1="427.45" x2="38.12" y2="-188.28" gradientUnits="userSpaceOnUse">
            <stop offset="0.32" stop-color="#001b41"/>
            <stop offset="0.52" stop-color="#4a00e0"/>
        </linearGradient>
        <linearGradient id="Gradient-3" x1="366.47" y1="173.86" x2="9.44" y2="416.84" gradientUnits="userSpaceOnUse">
            <stop offset="0" stop-color="#dfe2e7"/>
            <stop offset="0.38" stop-color="#dde0e5"/>
            <stop offset="0.57" stop-color="#d5d9e0"/>
            <stop offset="0.73" stop-color="#c8cdd6"/>
            <stop offset="0.86" stop-color="#b5bcc8"/>
            <stop offset="0.97" stop-color="#9ca7b6"/>
            <stop offset="1" stop-color="#95a0b0"/>
        </linearGradient>
    </defs>
    <style>
@keyframes Picturemodule_Mobile_t { 0% { transform: translate(39.3559px,39.3854px); } 62.8571% { transform: translate(39.3559px,39.3854px); } 65.7142% { transform: translate(75.1px,18.3008px); } 100% { transform: translate(75.1px,18.3008px); } }
@keyframes Picturemodule_Mobile_o { 0% { opacity: 0; } 44.2857% { opacity: 0; } 46.4286% { opacity: 1; } 92.1429% { opacity: 1; } 96.4286% { opacity: 0; } 100% { opacity: 0; } }
@keyframes frame_picture_mobile_s { 0% { stroke: none; } 57.8571% { stroke: none; } 100% { stroke: none; } }
@keyframes Textmodul_Mobile_t { 0% { transform: translate(67.439px,19.6826px); } 60.7142% { transform: translate(67.439px,19.6826px); } 63.5714% { transform: translate(38.7979px,36.4482px); } 100% { transform: translate(38.7979px,36.4482px); } }
@keyframes Textmodul_Mobile_o { 0% { opacity: 0; } 26.4286% { opacity: 0; } 28.5714% { opacity: 1; } 94.2857% { opacity: 1; } 98.5714% { opacity: 0; } 100% { opacity: 0; } }
@keyframes frame_text_mobile_s { 0% { stroke: none; } 57.8571% { stroke: none; } 58.5714% { stroke: #000000; } 100% { stroke: #000000; } }
@keyframes Textframe_Desktop_t { 0% { transform: translate(4.4317px,8.3424px); animation-timing-function: cubic-bezier(0,0,0.58,1); } 5.7142% { transform: translate(87.84px,55.0222px); } 20.7142% { transform: translate(87.84px,55.0222px); } 24.2857% { transform: translate(166.45px,55.0222px); } 47.1428% { transform: translate(166.45px,55.0222px); } 67.1428% { transform: translate(166.45px,55.0222px); } 70.7142% { transform: translate(280.298px,120.4042px); } 100% { transform: translate(280.298px,120.4042px); } }
@keyframes Textframe_Desktop_o { 0% { opacity: 0; } 2.1429% { opacity: 0.9; } 87.8571% { opacity: 0.9; } 92.1429% { opacity: 0; } 100% { opacity: 0; } }
@keyframes Textframe_s { 0% { stroke: none; } 18.5714% { stroke: none; } 19.2857% { stroke: #000000; } 27.8571% { stroke: #000000; } 28.5714% { stroke: none; } 47.1429% { stroke: none; } 100% { stroke: none; } }
@keyframes Photo_t { 0% { transform: translate(4.2909px,101.9592px); } 1.4285% { transform: translate(4.2909px,101.9592px); } 7.1428% { transform: translate(83.61px,143.1722px); } 36.4285% { transform: translate(83.61px,143.1722px); animation-timing-function: cubic-bezier(0,0,0.58,1); } 44.2857% { transform: translate(265.253px,111.1702px); } 46.4285% { transform: translate(265.253px,111.1702px); } 65% { transform: translate(265.253px,111.1702px); } 68.5714% { transform: translate(166.685px,55.7292px); } 100% { transform: translate(166.685px,55.7292px); } }
@keyframes Photo_o { 0% { opacity: 0; } 2.1429% { opacity: 1; } 47.1429% { opacity: 1; } 85.7143% { opacity: 1; } 90% { opacity: 0; } 100% { opacity: 0; } }
@keyframes Photoframe_Desktop_s { 0% { stroke: none; } 35% { stroke: none; } 35.7143% { stroke: #000000; } 44.2857% { stroke: #000000; } 45% { stroke: none; } 47.1429% { stroke: none; } 100% { stroke: none; } }
@keyframes a0_t { 0% { transform: translate(18.742px,224.815px); } 11.4285% { transform: translate(18.742px,224.815px); animation-timing-function: cubic-bezier(0,0,0.58,1); } 17.8571% { transform: translate(92.85px,144.385px); } 20.7142% { transform: translate(92.85px,144.385px); } 24.2857% { transform: translate(177.45px,144.385px); } 28.5714% { transform: translate(177.45px,144.385px); } 34.2857% { transform: translate(162.95px,279.118px); } 36.4285% { transform: translate(162.95px,279.118px); animation-timing-function: cubic-bezier(0,0,0.58,1); } 44.2857% { transform: translate(344.593px,247.116px); } 46.4285% { transform: translate(344.593px,247.116px); } 50% { transform: translate(344.593px,247.116px); } 56.4285% { transform: translate(401.888px,408.805px); } 58.5714% { transform: translate(401.888px,408.805px); } 60.7142% { transform: translate(401.888px,408.805px); } 63.5714% { transform: translate(363.341px,431.369px); } 74.2857% { transform: translate(363.341px,431.369px); animation-timing-function: cubic-bezier(0.42,0,0.58,1); } 83.5714% { transform: translate(18.7437px,224.814px); } 100% { transform: translate(18.7437px,224.814px); } }
@keyframes Cursor_t { 0% { transform: scale(1,1) translate(-41.6432px,-191.666px); } 17.8571% { transform: scale(1,1) translate(-41.6432px,-191.666px); } 18.5714% { transform: scale(0.8,0.8) translate(-41.6432px,-191.666px); } 26.4285% { transform: scale(0.8,0.8) translate(-41.6432px,-191.666px); } 27.1428% { transform: scale(1,1) translate(-41.6432px,-191.666px); } 34.2857% { transform: scale(1,1) translate(-41.6432px,-191.666px); } 35% { transform: scale(0.8,0.8) translate(-41.6432px,-191.666px); } 44.2857% { transform: scale(0.8,0.8) translate(-41.6432px,-191.666px); } 45% { transform: scale(1,1) translate(-41.6432px,-191.666px); } 46.4285% { transform: scale(1,1) translate(-41.6432px,-191.666px); } 56.4285% { transform: scale(1,1) translate(-41.6432px,-191.666px); } 57.8571% { transform: scale(0.8,0.8) translate(-41.6432px,-191.666px); } 64.2857% { transform: scale(0.8,0.8) translate(-41.6432px,-191.666px); } 65% { transform: scale(1,1) translate(-41.6432px,-191.666px); } 100% { transform: scale(1,1) translate(-41.6432px,-191.666px); } }
    </style>
    <title>easyToUse</title>
    <g id="Smartphone" data-name="Ebene 1" transform="translate(301.287,347.745) scale(1.10774,1.10774) translate(-83.8908,-60.0177)">
        <g opacity="0.4">
            <path d="M164.6,57.6L63.7,115.9C63.5989,115.949,63.4927,115.986,63.3833,116.011C63.274,116.036,63.1622,116.048,63.05,116.048C62.9378,116.048,62.826,116.036,62.7167,116.011C62.6073,115.986,62.5011,115.949,62.4,115.9L3.1,81.5C2.88589,81.4067,2.70368,81.2529,2.57572,81.0575C2.44775,80.8621,2.37958,80.6336,2.37958,80.4C2.37958,80.1664,2.44775,79.9379,2.57572,79.7425C2.70368,79.5471,2.88589,79.3933,3.1,79.3L105.2,22.2C105.294,22.1314,105.398,22.078,105.508,22.0419C105.618,22.0058,105.734,21.9874,105.85,21.9874C105.966,21.9874,106.082,22.0058,106.192,22.0419C106.302,22.078,106.406,22.1314,106.5,22.2L164.6,55.3C164.809,55.4104,164.985,55.5758,165.107,55.7785C165.229,55.9811,165.294,56.2133,165.294,56.45C165.294,56.6867,165.229,56.9189,165.107,57.1215C164.985,57.3242,164.809,57.4896,164.6,57.6Z" fill="#95a0b0" transform="translate(0,-1.80548)"/>
        </g>
        <path d="M165.4,37.7L165.4,43.4C165.4,43.5091,165.387,43.6178,165.36,43.7236C165.333,43.8293,165.294,43.9313,165.241,44.0271C165.189,44.1228,165.125,44.2116,165.051,44.2914C164.976,44.3712,164.892,44.4413,164.8,44.5L63.8,102.9C63.6989,102.949,63.5927,102.986,63.4833,103.011C63.374,103.036,63.2622,103.048,63.15,103.048C63.0378,103.048,62.926,103.036,62.8167,103.011C62.7073,102.986,62.6011,102.949,62.5,102.9L5.2,69.7C5.10054,69.65,5.00924,69.5853,4.92921,69.5079C4.84919,69.4306,4.78137,69.3415,4.72807,69.2438C4.67477,69.1461,4.63661,69.0408,4.6149,68.9317C4.59318,68.8225,4.58816,68.7107,4.6,68.6L4.6,62.9" fill="#28cce8"/>
        <path d="M164.8,39L63.9,97.3C63.7989,97.3486,63.6927,97.3857,63.5833,97.4106C63.474,97.4356,63.3622,97.4481,63.25,97.4481C63.1378,97.4481,63.026,97.4356,62.9167,97.4106C62.8073,97.3857,62.7011,97.3486,62.6,97.3L5.3,64.2C5.08589,64.1067,4.90368,63.9529,4.77572,63.7575C4.64775,63.5621,4.57958,63.3336,4.57958,63.1C4.57958,62.8664,4.64775,62.6379,4.77572,62.4425C4.90368,62.2471,5.08589,62.0933,5.3,62L105.4,4.2C105.494,4.13137,105.598,4.07801,105.708,4.04191C105.818,4.00581,105.934,3.98741,106.05,3.98741C106.166,3.98741,106.282,4.00581,106.392,4.04191C106.502,4.07801,106.606,4.13137,106.7,4.2L164.8,36.7C164.986,36.8289,165.137,37.0008,165.242,37.2011C165.347,37.4013,165.402,37.624,165.402,37.85C165.402,38.076,165.347,38.2987,165.242,38.4989C165.137,38.6992,164.986,38.8711,164.8,39Z" fill="#f6f7f8"/>
        <ellipse rx="5.9" ry="4.2" fill="url(#Gradient-0)" transform="translate(0,0) translate(40.4,74.4)"/>
        <path fill="url(#Gradient-1)" d="M157.2,43.3L97.5,8.7L20.5,53.1L80.3,87.8L157.2,43.3Z"/>
        <path d="M138.1,28.4L119.3,17.6C118.7,17.2,118.8,16.7,119.5,16.3L119.5,16.3C119.665,16.2048,119.842,16.1297,120.025,16.0763C120.208,16.0228,120.397,15.9914,120.588,15.9828C120.779,15.9741,120.97,15.9882,121.157,16.0248C121.344,16.0614,121.527,16.1202,121.7,16.2L140.5,27C141,27.4,141,27.9,140.3,28.3L140.3,28.3C140.133,28.3915,139.956,28.4636,139.773,28.515C139.59,28.5664,139.402,28.5967,139.212,28.6053C139.022,28.6139,138.831,28.6009,138.644,28.5663C138.457,28.5317,138.274,28.476,138.1,28.4Z" fill="#95a0b0"/>
        <g id="Picturemodule_Mobile" opacity="0" transform="translate(70.7559,57.5328) translate(-31.4,-18.1474)" style="animation: Picturemodule_Mobile_t 14s linear infinite both, Picturemodule_Mobile_o 14s linear infinite both;">
            <path id="frame_picture_mobile" d="M113,56.3C112.899,56.3486,112.793,56.3857,112.683,56.4106C112.574,56.4356,112.462,56.4481,112.35,56.4481C112.238,56.4481,112.126,56.4356,112.017,56.4106C111.907,56.3857,111.801,56.3486,111.7,56.3L74.8,35.1C74.7379,35.0534,74.6875,34.993,74.6528,34.9236C74.6181,34.8542,74.6,34.7776,74.6,34.7C74.6,34.6224,74.6181,34.5458,74.6528,34.4764C74.6875,34.407,74.7379,34.3466,74.8,34.3L99.1,20.3C99.1923,20.252,99.2901,20.2152,99.3912,20.1905C99.4922,20.1658,99.5959,20.1533,99.7,20.1533C99.8041,20.1533,99.9078,20.1658,100.009,20.1905C100.11,20.2152,100.208,20.252,100.3,20.3L137.2,41.6C137.262,41.6466,137.312,41.707,137.347,41.7764C137.382,41.8458,137.4,41.9224,137.4,42C137.4,42.0776,137.382,42.1542,137.347,42.2236C137.312,42.293,137.262,42.3534,137.2,42.4Z" fill="#00c0e5" stroke="none" transform="translate(-74.6,-20.1533)" style="animation: frame_picture_mobile_s 14s linear infinite both;"/>
            <ellipse id="Sun-2" rx="4.4" ry="2.5" fill="#fed22c" transform="translate(-74.6,-20.1533) translate(110.2,35)"/>
            <g id="Mountain-2" transform="translate(-74.6,-20.1533)">
                <path d="M113,38.2C113.2,37.6,112.8,37.2,112.2,37.2L99.9,38.2C99.3,38.2,98.9,37.8,99.1,37.2L99.8,34C99.8627,33.8797,99.889,33.7437,99.8758,33.6087C99.8626,33.4736,99.8105,33.3453,99.7257,33.2394C99.641,33.1335,99.5273,33.0544,99.3984,33.0119C99.2696,32.9694,99.1312,32.9653,99,33L82.9,34.2C82.3,34.3,82.2,34.6,82.7,34.9L88.9,38.4L90.8,39.5L96.6,42.9L98.5,44L109.1,50.1C109.7,50.4,110.2,50.2,110.3,49.6Z" fill="#5c1eaf"/>
                <path d="M113,38.2C113.2,37.6,112.8,37.2,112.2,37.2L99.9,38.2C99.3,38.2,98.9,37.8,99.1,37.2L99.8,34C99.8627,33.8797,99.889,33.7437,99.8758,33.6087C99.8626,33.4736,99.8105,33.3453,99.7257,33.2394C99.641,33.1335,99.5273,33.0544,99.3984,33.0119C99.2696,32.9694,99.1312,32.9653,99,33L82.9,34.2C82.3,34.3,82.2,34.6,82.7,34.9L88.9,38.4L90.8,39.5L96.6,42.9L98.5,44L109.1,50.1C109.7,50.4,110.2,50.2,110.3,49.6Z" fill="none" stroke="#5c1eaf" stroke-linecap="round" stroke-miterlimit="10" stroke-width="0.73"/>
            </g>
        </g>
        <g id="Textmodul_Mobile" opacity="0" transform="translate(101.339,39.2286) translate(-33.9,-19.546)" style="animation: Textmodul_Mobile_t 14s linear infinite both, Textmodul_Mobile_o 14s linear infinite both;">
            <path id="frame_text_mobile" d="M78.7,76.1C78.5811,76.1481,78.4579,76.1846,78.332,76.2091C78.2062,76.2336,78.0782,76.246,77.95,76.246C77.8218,76.246,77.6938,76.2336,77.568,76.2091C77.4421,76.1846,77.3189,76.1481,77.2,76.1L40.6,55C40.2,54.7,40.2,54.3,40.6,54.1L69.7,37.3C69.8189,37.2519,69.9421,37.2154,70.068,37.1909C70.1938,37.1664,70.3218,37.154,70.45,37.154C70.5782,37.154,70.7062,37.1664,70.832,37.1909C70.9579,37.2154,71.0811,37.2519,71.2,37.3L107.8,58.4C108.2,58.7,108.2,59.1,107.8,59.3Z" fill="#e7f9fc" stroke="none" transform="translate(33.9,19.546) translate(-74.2,-56.7)" style="animation: frame_text_mobile_s 14s linear infinite both;"/>
            <path d="M74.9,45.1L73.8,44.5L72.3,43.8C72.1749,43.7846,72.0491,43.7751,71.9231,43.7716C71.7971,43.7681,71.671,43.7705,71.5453,43.7789C71.4195,43.7873,71.2942,43.8016,71.1698,43.8218C71.0453,43.842,70.922,43.8681,70.8,43.9C70.6437,43.9273,70.4884,43.9604,70.3345,43.9993C70.1806,44.0382,70.0282,44.0827,69.8776,44.1329C69.7271,44.1831,69.5784,44.2389,69.432,44.3001C69.2856,44.3614,69.1415,44.428,69,44.5L68,43.9L71.5,41.9L83.8,49L80.3,51L79.2,50.4C80,49.7,80.4,49.2,80.3,48.8C80.2,48.4,79.9,48,79.2,47.6L78.1,47L69.4,52C69.3097,52.0462,69.2224,52.0981,69.1386,52.1554C69.0549,52.2127,68.9748,52.2752,68.899,52.3426C68.8232,52.41,68.7517,52.4822,68.685,52.5587C68.6183,52.6351,68.5565,52.7157,68.5,52.8C68.5,53.1,68.8,53.3,69.4,53.7L69.7,53.9L68.7,54.5L61.9,50.5L62.9,50L63.2,50C63.3116,50.0895,63.4314,50.1684,63.5577,50.2357C63.684,50.3029,63.8163,50.3583,63.9528,50.401C64.0894,50.4436,64.2297,50.4735,64.3718,50.4901C64.5139,50.5067,64.6573,50.51,64.8,50.5C64.9247,50.4884,65.0485,50.469,65.1708,50.442C65.2931,50.4149,65.4135,50.3802,65.5315,50.3381C65.6494,50.296,65.7646,50.2465,65.8763,50.19C65.9881,50.1335,66.0962,50.07,66.2,50Z" fill="#001b41" transform="translate(-40.3,-37.154)"/>
            <path fill="#001b41" stroke="#001b41" stroke-linecap="round" stroke-miterlimit="10" stroke-width="0.88" d="M77.2,53.5L81.5,56" transform="translate(-40.3,-37.154)"/>
            <path fill="#001b41" stroke="#001b41" stroke-linecap="round" stroke-miterlimit="10" stroke-width="0.88" d="M73.4,55.7L85.1,62.4" transform="translate(-40.3,-37.154)"/>
            <path fill="#001b41" stroke="#001b41" stroke-linecap="round" stroke-miterlimit="10" stroke-width="0.88" d="M59.3,51.7L81.5,64.5" transform="translate(-40.3,-37.154)"/>
            <path fill="#001b41" stroke="#001b41" stroke-linecap="round" stroke-miterlimit="10" stroke-width="0.88" d="M55.7,53.7L77.9,66.6" transform="translate(-40.3,-37.154)"/>
            <path fill="#001b41" stroke="#001b41" stroke-linecap="round" stroke-miterlimit="10" stroke-width="0.88" d="M52.1,55.8L74.3,68.6" transform="translate(-40.3,-37.154)"/>
        </g>
    </g>
    <g id="Laptop" transform="translate(159.009,181.234) scale(0.823073,0.823073) translate(-190.275,-211.356)">
        <g id="Laptop-2" data-name="Ebene 1" transform="translate(-7.35,-4.14332)">
            <path fill="#11c7e6" d="M7.4,281.4L7.4,270.8L15.5,276.2L15.5,286.6"/>
            <path fill="#11c7e6" d="M386.9,323.6L386.9,312.9L374.8,320.6L374.8,331.2"/>
            <g id="Shadow-2" opacity="0.4">
                <path d="M8.1,295.2C7.1,295.7,7.1,296.6,8.1,297.2L231.7,426.4C231.957,426.549,232.233,426.663,232.52,426.74C232.807,426.817,233.103,426.856,233.4,426.856C233.697,426.856,233.993,426.817,234.28,426.74C234.567,426.663,234.843,426.549,235.1,426.4L386.2,339.3C387.2,338.7,387.2,337.8,386.2,337.3L162.4,208C162.135,207.876,161.857,207.781,161.571,207.717C161.285,207.653,160.993,207.621,160.7,207.621C160.407,207.621,160.115,207.653,159.829,207.717C159.543,207.781,159.265,207.876,159,208Z" fill="#95a0b0" transform="translate(0,-2.31258)"/>
            </g>
            <g id="Shape-3">
                <path d="M8.1,280.4C7.1,281,7.1,281.9,8.1,282.4L231.7,411.7C231.965,411.824,232.243,411.919,232.529,411.983C232.815,412.047,233.107,412.079,233.4,412.079C233.693,412.079,233.985,412.047,234.271,411.983C234.557,411.919,234.835,411.824,235.1,411.7L386.2,324.6C387.2,324,387.2,323.1,386.2,322.6L162.4,193.3C162.135,193.176,161.857,193.081,161.571,193.017C161.285,192.953,160.993,192.921,160.7,192.921C160.407,192.921,160.115,192.953,159.829,193.017C159.543,193.081,159.265,193.176,159,193.3L13.9,277.1L10.5,279.1Z" fill="#11c7e6"/>
            </g>
            <g id="Shape-4" data-name="Shape">
                <path id="Screen" d="M160.7,179.8C160.721,180.097,160.775,180.39,160.86,180.675C160.946,180.96,161.064,181.234,161.21,181.493C161.357,181.751,161.532,181.993,161.732,182.213C161.932,182.433,162.156,182.63,162.4,182.8L386.2,312.1C387.2,312.6,387.9,312.2,387.9,311.1L387.9,136.6C387.895,136.3,387.853,136.002,387.774,135.712C387.695,135.423,387.58,135.144,387.433,134.883C387.285,134.622,387.105,134.381,386.897,134.164C386.689,133.948,386.455,133.758,386.2,133.6L162.4,4.4C161.5,3.8,160.7,4.3,160.7,5.4Z" fill="url(#Gradient-2)"/>
            </g>
            <ellipse id="Oval-4" rx="2.3" ry="3.8" fill="#f965a8" transform="translate(13.6,87) rotate(-30) translate(169.2,18.1)"/>
            <ellipse id="Oval-5" data-name="Oval" rx="2.3" ry="3.8" fill="#fed22c" transform="translate(12.2,92.3) rotate(-30) translate(178.3,23.4)"/>
            <ellipse id="Oval-6" data-name="Oval" rx="2.3" ry="3.8" fill="#3ae0c0" transform="translate(10.8,97.6) rotate(-30) translate(187.6,28.7)"/>
            <g id="Shape-5" data-name="Shape">
                <path d="M8.1,269.9C7.1,270.5,7.1,271.4,8.1,271.9L231.7,401.2C231.965,401.324,232.243,401.419,232.529,401.483C232.815,401.547,233.107,401.579,233.4,401.579C233.693,401.579,233.985,401.547,234.271,401.483C234.557,401.419,234.835,401.324,235.1,401.2L386.2,314.1C387.2,313.5,387.2,312.6,386.2,312.1L162.4,182.8C162.143,182.651,161.867,182.537,161.58,182.46C161.293,182.383,160.997,182.344,160.7,182.344C160.403,182.344,160.107,182.383,159.82,182.46C159.533,182.537,159.257,182.651,159,182.8Z" fill="#f6f7f8"/>
            </g>
            <path d="M218.2,323.2L145.2,281C144.502,280.657,143.767,280.395,143.01,280.219C142.253,280.043,141.478,279.954,140.7,279.954C139.922,279.954,139.147,280.043,138.39,280.219C137.633,280.395,136.898,280.657,136.2,281L96.8,303.7C94.3,305.1,94.3,307.5,96.8,308.9L169.8,351.1C170.507,351.444,171.25,351.706,172.015,351.883C172.781,352.059,173.564,352.148,174.35,352.148C175.136,352.148,175.919,352.059,176.685,351.883C177.45,351.706,178.193,351.444,178.9,351.1L218.2,328.5C220.7,327.1,220.7,324.6,218.2,323.2Z" fill="url(#Gradient-3)"/>
            <path d="M351.9,305.6L170.3,200.7C165.8,198.1,158.1,198.1,153.6,200.7L97.3,233.1C92.8,235.6,92.8,240.1,97.3,242.7L278.9,347.6C283.4,350.1,291,350.1,295.5,347.6L351.9,315.2C356.4,312.6,356.4,308.1,351.9,305.6Z" fill="#dfe2e7"/>
            <path d="M140.9,348.9C142.8,347.7,142.9,346,141.2,345L100.1,321C98.4,320,95.3,320.1,93.2,321.3Z" fill="#11c7e6"/>
        </g>
        <g id="Textframe_Desktop" opacity="0" transform="translate(47.6317,72.5772) translate(-43.2,-64.2348)" style="animation: Textframe_Desktop_t 14s linear infinite both, Textframe_Desktop_o 14s linear infinite both;">
            <path id="Textframe" d="M118,152.2C118,153.3,117.2,153.7,116.3,153.2L33.3,105.2C33.0536,105.032,32.8273,104.837,32.6254,104.618C32.4235,104.399,32.2473,104.157,32.1004,103.898C31.9535,103.639,31.8368,103.364,31.7526,103.078C31.6684,102.792,31.6172,102.497,31.6,102.2L31.6,26.2C31.6,25.1,32.4,24.6,33.3,25.2L116.3,73.1C116.544,73.2703,116.768,73.4672,116.968,73.6872C117.168,73.9071,117.343,74.1487,117.49,74.4074C117.636,74.6661,117.754,74.9404,117.84,75.2252C117.925,75.5099,117.979,75.8033,118,76.1Z" fill="#e7f9fc" stroke-width="2" stroke="none" transform="translate(-31.6,-24.9433)" style="animation: Textframe_s 14s linear infinite both;"/>
            <path id="T" d="M52.8,49.3L50.4,47.9C50.1631,47.7478,49.9197,47.6059,49.6705,47.4748C49.4212,47.3437,49.1664,47.2236,48.9067,47.1147C48.6471,47.0058,48.3828,46.9082,48.1146,46.8223C47.8464,46.7364,47.5746,46.6623,47.3,46.6C47.1249,46.6157,46.9528,46.6556,46.7887,46.7185C46.6246,46.7815,46.47,46.867,46.3293,46.9724C46.1887,47.0779,46.0634,47.2024,45.957,47.3423C45.8505,47.4823,45.7641,47.6363,45.7,47.8C45.5663,48.0438,45.4485,48.2959,45.3471,48.5547C45.2457,48.8136,45.1611,49.0787,45.0936,49.3484C45.0262,49.6181,44.9762,49.8919,44.9438,50.168C44.9114,50.4441,44.8968,50.722,44.9,51L42.6,49.6L42.6,40.5L70.4,56.6L70.4,65.7L68.1,64.4C68.0429,63.8701,67.9621,63.3431,67.8577,62.8204C67.7533,62.2978,67.6255,61.7801,67.4747,61.269C67.3238,60.7578,67.1501,60.2537,66.954,59.7581C66.758,59.2625,66.5397,58.776,66.3,58.3C66.0583,57.9452,65.7953,57.6055,65.5125,57.2826C65.2296,56.9597,64.9274,56.6543,64.6075,56.3681C64.2876,56.0819,63.9506,55.8153,63.5984,55.57C63.2462,55.3246,62.8794,55.1009,62.5,54.9L60.1,53.5L60.1,76.2C60.0879,76.4979,60.0914,76.7963,60.1107,77.0939C60.1299,77.3914,60.1648,77.6878,60.2152,77.9817C60.2656,78.2756,60.3314,78.5666,60.4124,78.8536C60.4933,79.1406,60.5893,79.4231,60.7,79.7C60.8628,79.9581,61.0435,80.2045,61.2409,80.4373C61.4383,80.67,61.6518,80.8886,61.8799,81.0913C62.108,81.2941,62.3501,81.4805,62.6044,81.6493C62.8587,81.818,63.1245,81.9686,63.4,82.1L64.2,82.5L64.2,85.1L48.8,76.3L48.8,73.6L49.4,74C50.8,74.8,51.7,75,52.1,74.7C52.5,74.4,52.8,73.4,52.8,72Z" fill="#001b41" transform="translate(-31.6,-24.9433)"/>
            <path id="line5" d="M48,100.6L98.3,129.7" fill="#001b41" stroke="#001b41" stroke-linecap="round" stroke-miterlimit="10" stroke-width="2" transform="translate(-31.6,-24.9433)"/>
            <path id="line4" d="M48,91.2L98.3,120.3" fill="#001b41" stroke="#001b41" stroke-linecap="round" stroke-miterlimit="10" stroke-width="2" transform="translate(-31.6,-24.9433)"/>
            <path id="line3" d="M48,81.8L98.3,110.9" fill="#001b41" stroke="#001b41" stroke-linecap="round" stroke-miterlimit="10" stroke-width="2" transform="translate(-31.6,-24.9433)"/>
            <path id="line2" d="M71.9,86.2L98.3,101.4" fill="#001b41" stroke="#001b41" stroke-linecap="round" stroke-miterlimit="10" stroke-width="2" transform="translate(-31.6,-24.9433)"/>
            <path id="line1" d="M71.9,76.3L81.6,81.9" fill="#001b41" stroke="#001b41" stroke-linecap="round" stroke-miterlimit="10" stroke-width="2" transform="translate(-31.6,-24.9433)"/>
        </g>
        <g id="Photo" opacity="0" transform="translate(56.3409,171.444) translate(-52.05,-69.4848)" style="animation: Photo_t 14s linear infinite both, Photo_o 14s linear infinite both;">
            <g id="Photoframe-2" data-name="Photoframe" opacity="1" transform="translate(-85.7,-119.687)">
                <path id="Photoframe_Desktop" d="M189.8,257.4C189.8,258.5,189,259,188.1,258.4L87.4,200.3C87.1451,200.142,86.911,199.952,86.7032,199.736C86.4954,199.519,86.3154,199.278,86.1675,199.017C86.0195,198.756,85.9048,198.477,85.826,198.188C85.7472,197.898,85.7048,197.6,85.7,197.3L85.7,120.9C85.7,119.8,86.4,119.4,87.4,119.9L188.1,178C188.344,178.17,188.568,178.367,188.768,178.587C188.968,178.807,189.143,179.049,189.29,179.307C189.436,179.566,189.554,179.84,189.64,180.125C189.725,180.41,189.779,180.703,189.8,181Z" fill="#00c0e5" stroke="none" stroke-width="2" style="animation: Photoframe_Desktop_s 14s linear infinite both;"/>
            </g>
            <ellipse id="Sun" rx="7" ry="12.1" fill="#fed22c" transform="translate(-153.6,-28.8872) rotate(-30) translate(135.5,172.1)"/>
            <g id="Mountain" transform="translate(-85.7,-119.687)">
                <path d="M146.1,181.1C145.964,180.773,145.747,180.485,145.47,180.264C145.193,180.043,144.865,179.895,144.515,179.835C144.166,179.776,143.807,179.805,143.472,179.921C143.137,180.037,142.837,180.237,142.6,180.5L129.9,192.4C129.679,192.692,129.382,192.918,129.041,193.053C128.7,193.187,128.329,193.226,127.968,193.164C127.606,193.102,127.269,192.942,126.993,192.701C126.716,192.461,126.511,192.149,126.4,191.8L118,174.2C117.879,173.873,117.674,173.583,117.406,173.359C117.138,173.135,116.816,172.986,116.472,172.925C116.128,172.864,115.775,172.895,115.446,173.013C115.118,173.132,114.826,173.334,114.6,173.6L97.4,189.8C97.1067,190.019,96.8757,190.311,96.73,190.647C96.5843,190.983,96.5289,191.351,96.5694,191.715C96.6098,192.078,96.7446,192.425,96.9605,192.721C97.1764,193.017,97.4658,193.251,97.8,193.4L114.5,203L119.7,206L135.7,215.3L140.9,218.3L169.9,235C171.3,235.8,171.9,235.3,171.2,233.8Z" fill="#5c1eaf"/>
                <path d="M146.1,181.1C145.964,180.773,145.747,180.485,145.47,180.264C145.193,180.043,144.865,179.895,144.515,179.835C144.166,179.776,143.807,179.805,143.472,179.921C143.137,180.037,142.837,180.237,142.6,180.5L129.9,192.4C129.679,192.692,129.382,192.918,129.041,193.053C128.7,193.187,128.329,193.226,127.968,193.164C127.606,193.102,127.269,192.942,126.993,192.701C126.716,192.461,126.511,192.149,126.4,191.8L118,174.2C117.879,173.873,117.674,173.583,117.406,173.359C117.138,173.135,116.816,172.986,116.472,172.925C116.128,172.864,115.775,172.895,115.446,173.013C115.118,173.132,114.826,173.334,114.6,173.6L97.4,189.8C97.1067,190.019,96.8757,190.311,96.73,190.647C96.5843,190.983,96.5289,191.351,96.5694,191.715C96.6098,192.078,96.7446,192.425,96.9605,192.721C97.1764,193.017,97.4658,193.251,97.8,193.4L114.5,203L119.7,206L135.7,215.3L140.9,218.3L169.9,235C171.3,235.8,171.9,235.3,171.2,233.8Z" fill="none" stroke="#5c1eaf" stroke-linecap="round" stroke-miterlimit="10" stroke-width="2"/>
            </g>
        </g>
        <g id="Cursor" style="animation: a0_t 14s linear infinite both;">
            <path d="M56.4,173.9L56.1,202.6C56.1,204,54.3,204.6,52.8,203.7L44.6,197.3L36.5,211.1C36,212,34.6,212.2,33.4,211.5L32.2,210.8L30.9,210C30.6373,209.88,30.3995,209.712,30.199,209.505C29.9985,209.297,29.8389,209.053,29.7285,208.786C29.6181,208.52,29.559,208.235,29.5541,207.946C29.5492,207.657,29.5987,207.37,29.7,207.1L37.8,193.3L28.3,189.3C26.7,188.4,26.4,186.6,27.7,185.9L52.5,171.6C52.9064,171.446,53.3423,171.385,53.7755,171.422C54.2087,171.459,54.628,171.592,55.0025,171.813C55.3769,172.034,55.6969,172.336,55.9388,172.697C56.1808,173.059,56.3384,173.47,56.4,173.9Z" fill="#001b41" stroke="#fff" stroke-linecap="round" stroke-miterlimit="10" stroke-width="2" transform="translate(18.742,224.815) translate(-41.6432,-191.666)" style="animation: Cursor_t 14s linear infinite both;"/>
        </g>
    </g>
</svg>
